<!-- icon666.com - MILLIONS vector ICONS FREE --><svg version="1.1" id="Capa_1" xmlns="http://www.w3.org/2000/svg" xmlns:xlink="http://www.w3.org/1999/xlink" x="0px" y="0px" viewBox="0 0 512 512" style="enable-background:new 0 0 512 512;" xml:space="preserve"><g><path style="fill:#FFFFFF;" d="M341.333,96h85.333v85.333h-85.333V96z"></path><path style="fill:#FFFFFF;" d="M85.333,330.667h85.333V416H85.333V330.667z"></path><path style="fill:#FFFFFF;" d="M85.333,96h85.333v85.333H85.333V96z"></path></g><path style="fill:#87D2F3;" d="M501.333,53.333v405.333c0,23.564-19.103,42.667-42.667,42.667H53.333 c-23.564,0-42.667-19.103-42.667-42.667V53.333c0-23.564,19.103-42.667,42.667-42.667h405.333 C482.231,10.667,501.333,29.769,501.333,53.333z M426.667,181.333V96h-85.333v85.333H426.667z M170.667,416v-85.333H85.333V416 H170.667z M170.667,181.333V96H85.333v85.333H170.667z"></path><g><path style="fill:#2170A6;" d="M458.667,0H53.333C23.893,0.035,0.035,23.893,0,53.333v405.333 C0.035,488.107,23.893,511.965,53.333,512h405.333c29.441-0.035,53.298-23.893,53.333-53.333V53.333 C511.965,23.893,488.107,0.035,458.667,0z M490.667,458.667c0,17.673-14.327,32-32,32H53.333c-17.673,0-32-14.327-32-32V53.333 c0-17.673,14.327-32,32-32h405.333c17.673,0,32,14.327,32,32V458.667z"></path><path style="fill:#2170A6;" d="M85.333,192h85.333c5.891,0,10.667-4.776,10.667-10.667V96c0-5.891-4.776-10.667-10.667-10.667 H85.333c-5.891,0-10.667,4.776-10.667,10.667v85.333C74.667,187.224,79.442,192,85.333,192z M96,106.667h64v64H96V106.667z"></path><path style="fill:#2170A6;" d="M170.667,320H85.333c-5.891,0-10.667,4.776-10.667,10.667V416c0,5.891,4.776,10.667,10.667,10.667 h85.333c5.891,0,10.667-4.776,10.667-10.667v-85.333C181.333,324.776,176.558,320,170.667,320z M160,405.333H96v-64h64V405.333z"></path><path style="fill:#2170A6;" d="M341.333,192h85.333c5.891,0,10.667-4.776,10.667-10.667V96c0-5.891-4.776-10.667-10.667-10.667 h-85.333c-5.891,0-10.667,4.776-10.667,10.667v85.333C330.667,187.224,335.442,192,341.333,192z M352,106.667h64v64h-64V106.667z"></path><path style="fill:#2170A6;" d="M117.333,128h21.333v21.333h-21.333V128z"></path><path style="fill:#2170A6;" d="M117.333,362.667h21.333V384h-21.333V362.667z"></path><path style="fill:#2170A6;" d="M373.333,128h21.333v21.333h-21.333V128z"></path><path style="fill:#2170A6;" d="M437.333,352h-128v21.333h117.333v32H352v21.333h85.333c5.891,0,10.667-4.776,10.667-10.667v-53.333 C448,356.776,443.224,352,437.333,352z"></path><path style="fill:#2170A6;" d="M266.667,352H288v74.667h-21.333V352z"></path><path style="fill:#2170A6;" d="M309.333,405.333h21.333v21.333h-21.333V405.333z"></path><path style="fill:#2170A6;" d="M213.333,160H256c5.891,0,10.667-4.776,10.667-10.667v-42.667H288V160h21.333V96 c0-5.891-4.776-10.667-10.667-10.667H256c-5.891,0-10.667,4.776-10.667,10.667v42.667H224V85.333h-21.333v64 C202.667,155.224,207.442,160,213.333,160z"></path><path style="fill:#2170A6;" d="M288,192v74.667c0,5.891,4.776,10.667,10.667,10.667h138.667V256h-128v-64H288z"></path><path style="fill:#2170A6;" d="M170.667,234.667h42.667c5.891,0,10.667-4.776,10.667-10.667v-32h-21.333v21.333h-32V234.667z"></path><path style="fill:#2170A6;" d="M74.667,213.333h32v21.333h-32V213.333z"></path><path style="fill:#2170A6;" d="M128,213.333h21.333v21.333H128V213.333z"></path><path style="fill:#2170A6;" d="M416,213.333h21.333v21.333H416V213.333z"></path><path style="fill:#2170A6;" d="M330.667,213.333h64v21.333h-64V213.333z"></path><path style="fill:#2170A6;" d="M213.333,320v106.667h21.333v-96H448v-21.333H224C218.109,309.333,213.333,314.109,213.333,320z"></path><path style="fill:#2170A6;" d="M245.333,192h21.333v53.333h-21.333V192z"></path><path style="fill:#2170A6;" d="M192,256H74.667v21.333h106.667v21.333h21.333v-32C202.667,260.776,197.891,256,192,256z"></path><path style="fill:#2170A6;" d="M245.333,266.667h21.333V288h-21.333V266.667z"></path></g></svg>